<?xml version="1.0" encoding="UTF-8" standalone="no"?>
<svg width="1884.947" height="397.97354" viewBox="0 0 1884.947 397.97354" version="1.1" xml:space="preserve" style="clip-rule:evenodd;fill-rule:evenodd;stroke-linejoin:round;stroke-miterlimit:2" id="svg1358"
     xmlns="http://www.w3.org/2000/svg"
     xmlns:svg="http://www.w3.org/2000/svg">
     <defs id="defs1362" />
     <g transform="translate(-0.39845,-0.560244)" id="g1356" style="fill:#ffffff;fill-opacity:1;stroke:none;stroke-opacity:1">
          <g transform="translate(-7.07555,113.92)" id="g1286" style="fill:#ffffff;fill-opacity:1;stroke:none;stroke-opacity:1">
               <path d="m 974.76934,58.532036 88.99676,0.021 c 27.47,0.0065 48.07,11.184 48.07,38.649 0,27.465004 -20.38,41.371004 -49.04,41.371004 l -87.00001,0.985 -0.05,46.015 c 4.73,-0.013 5.17,-0.027 86.95001,-0.04 13.91,-0.024 22.13,8.879 27.05,22.983 l 20.04,56.028 c 3.9,10.785 13.28,20.048 27.03,20.048 l 26.96,-0.05 c 6.86,-1.139 12.01,-7.14 12.01,-11.968 l 0.02,-3.062 c 0,-8.372 -11.67,-36.351 -25.95,-73.95 -6.67,-14.795 -16.34,-24.343 -28.03,-30.342 10.63,-3.982 20.3,-9.529 28.95,-16.717 15.61,-14.448 24.22,-33.278 25.02,-57.008004 -0.42,-22.315 -8.2125,-40.959759 -20.0673,-53.963689 -11.8448,-13.004921 -35.005,-20.918696 -51.0003,-24.058053 -13.8445,-2.719158 -28.5876,-3.193633 -42.9276,-3.072633 -18.65,0.159 -54.2786,0.485425 -68.9727,4.052708 -8.86646,2.154033 -18.05275,11.376578 -18.05185,20.708377 7.5e-4,7.788336 -0.007,23.37029 -0.007,23.37029 z" style="fill:#ffffff;fill-opacity:1;fill-rule:nonzero;stroke:none;stroke-opacity:1" id="path1284" />
          </g>
          <g transform="translate(-7.07555,113.965)" id="g1290" style="fill:#ffffff;fill-opacity:1;stroke:none;stroke-opacity:1">
               <path d="m 868.78409,284.54704 27.377,-0.018 c 13.114,0 21.546,-9.348 21.309,-23.527 V 32.221036 c 0,-12.893 -9.63078,-21.828431 -22.7664,-21.860815 l -24.48032,-0.02022 c -13.131,0 -22.75245,8.956541 -22.75222,21.871428 l 0.004,228.808611 c -0.237,14.179 8.195,23.527 21.309,23.527 z" style="fill:#ffffff;fill-opacity:1;fill-rule:nonzero;stroke:none;stroke-opacity:1" id="path1288" />
          </g>
          <g transform="translate(-7.07555,113.983)" id="g1294" style="fill:#ffffff;fill-opacity:1;stroke:none;stroke-opacity:1">
               <path d="m 1291.4361,118.31497 -0.01,-56.181001 h 86.8 c 14.34,0.175 24.6,-8.96 24.57,-19.072 0,-1.017 -0.01,-4.44 -0.01,-14.013 0,-9.7 -8.7899,-18.854552 -22.5006,-18.690211 l -133.3811,-0.03638 c -12.37,0 -21.4495,8.925224 -21.449,21.822322 l 0.011,231.81627 c 5e-4,11.926 7.73,20.546 20.08,20.546 l 135.04,0.02 c 13.72,0.167 22.52,-9.818 22.52,-18.819 0,-13.935 0.01,-14.071 0.01,-14.071 0,-9.7 -10.23,-19.058 -24.58,-18.882 h -87.1 v -65.434 h 82.91 c 12.84,0.158 21.06,-8.995 21.06,-17.768 0,-13.202 0.01,-13.364 0.01,-13.364 0,-9.181 -9.57,-18.04 -22.98,-17.874 z" style="fill:#ffffff;fill-opacity:1;fill-rule:nonzero;stroke:none;stroke-opacity:1" id="path1292" />
          </g>
          <g transform="translate(-7.07555,113.965)" id="g1298" style="fill:#ffffff;fill-opacity:1;stroke:none;stroke-opacity:1">
               <path d="M 1775.4661,232.16504 V 32.221036 c 0,-12.893 -9.2125,-21.829207 -21.7786,-21.861288 l -23.427,-0.01974 c -12.56,0 -21.7697,8.956506 -21.7695,21.872444 l 0.01,228.807588 c -0.22,14.179 7.84,23.527 20.39,23.527 l 143.61,-0.009 c 11.19,0 19.92,-6.854 19.92,-19.158 l -0.01,-11.89 c 0,-11 -8.93,-21.069 -19.92,-21.069 h -97.01 z" style="fill:#ffffff;fill-opacity:1;fill-rule:nonzero;stroke:none;stroke-opacity:1" id="path1296" />
          </g>
          <g transform="matrix(-1,0,0,1,223.858,60.4278)" id="g1302" style="fill:#ffffff;fill-opacity:1;stroke:none;stroke-opacity:1">
               <ellipse cx="115.467" cy="174.33034" rx="24.493999" ry="24.493" style="fill:#ffffff;fill-opacity:1;stroke:none;stroke-opacity:1" id="ellipse1300" />
          </g>
          <g transform="matrix(-1,0,0,1,1372.79,205.248)" id="g1306" style="fill:#ffffff;fill-opacity:1;stroke:none;stroke-opacity:1">
               <circle cx="689.9408" cy="102.00628" style="fill:#ffffff;fill-opacity:1;stroke:none;stroke-opacity:1" id="ellipse1304" r="24.493999" />
          </g>
          <g transform="translate(-7.07555,-345.911)" id="g1310" style="fill:#ffffff;fill-opacity:1;stroke:none;stroke-opacity:1">
               <path d="m 530.321,369.43534 c 0,-12.618 -10.245,-22.861 -22.863,-22.861 -12.618,0 -22.863,10.243 -22.863,22.861 v 16.127 c 0,12.619 10.245,22.864 22.863,22.864 12.618,0 22.863,-10.245 22.863,-22.864 z" style="fill:#ffffff;fill-opacity:1;fill-rule:nonzero;stroke:none;stroke-opacity:1" id="path1308" />
          </g>
          <g transform="translate(-7.07555,46.8672)" id="g1314" style="fill:#ffffff;fill-opacity:1;stroke:none;stroke-opacity:1">
               <path d="m 530.884,100.84934 c -0.002,-12.928996 -10.497,-23.421996 -23.426,-23.421996 -12.929,0 -23.42757,10.493 -23.426,23.421996 l 0.0195,160.59803 c 0.002,12.928 10.497,23.43 23.426,23.43 12.929,0 23.42757,-10.502 23.426,-23.43 z" style="fill:#ffffff;fill-opacity:1;fill-rule:nonzero;stroke:none;stroke-opacity:1" id="path1312" />
          </g>
          <g transform="translate(-7.07555,113.958)" id="g1318" style="fill:#ffffff;fill-opacity:1;stroke:none;stroke-opacity:1">
               <path d="m 690.03919,72.292281 -50.904,192.257999 c -3.224,11.11 -15.749,20.009 -21.42,20.009 h -30.079 c -8.088,0.39 -13.997,-6.207 -15.058,-11.625 -0.459,-2.349 -0.519,-4.6 0,-7.18 0,0 76.566,-233.549999 77.992,-237.364999 4.798,-12.838 15.75256,-17.532531 22.97556,-17.929531 4.252,-0.234 28.74244,-0.105469 32.99444,0.127531 7.223,0.398 18.201,4.948 22.999,17.786 1.426,3.815 77.992,237.364999 77.992,237.364999 0.519,2.579 0.459,4.831 0,7.18 -1.061,5.418 -6.97,12.015 -15.058,11.625 h -30.079 c -5.671,0 -18.196,-8.9 -21.42,-20.009 l -50.904,-192.258999 z" style="fill:#ffffff;fill-opacity:1;fill-rule:nonzero;stroke:none;stroke-opacity:1" id="path1316" />
          </g>
          <g transform="matrix(-1,0,0,1,3116.79,204.672)" id="g1322" style="fill:#ffffff;fill-opacity:1;stroke:none;stroke-opacity:1">
               <ellipse cx="1565.8754" cy="102.57944" rx="24.495001" ry="24.493999" style="fill:#ffffff;fill-opacity:1;stroke:none;stroke-opacity:1" id="ellipse1320" />
          </g>
          <g transform="translate(-7.07555,113.382)" id="g1326" style="fill:#ffffff;fill-opacity:1;stroke:none;stroke-opacity:1">
               <path d="m 1558.1047,72.866437 -50.9,192.257003 c -3.22,11.11 -15.75,20.009 -21.42,20.009 h -30.08 c -8.09,0.39 -14,-6.207 -15.06,-11.625 -0.46,-2.349 -0.52,-4.6 0,-7.18 0,0 76.5603,-233.598661 77.9881,-237.424522 4.7827,-12.874496 15.7585,-17.445668 22.9785,-17.842668 4.26,-0.234 28.7313,-0.193238 32.9939,0.05287 7.2245,0.420209 18.2095,4.995321 22.9995,17.833321 1.43,3.815 78,237.364999 78,237.364999 0.52,2.579 0.46,4.831 0,7.18 -1.06,5.418 -6.97,12.015 -15.06,11.625 h -30.08 c -5.67,0 -18.2,-8.9 -21.42,-20.009 l -50.9,-192.257999 z" style="fill:#ffffff;fill-opacity:1;fill-rule:nonzero;stroke:none;stroke-opacity:1" id="path1324" />
          </g>
          <g transform="translate(-7.07555,-10.0271)" id="g1330" style="fill:#ffffff;fill-opacity:1;stroke:none;stroke-opacity:1">
               <path d="m 152.481,72.437344 46.151,0.082 c -0.034,0.367 2.649,-16.041 17.293,-16.041 h 172.403 c 10.056,0 19.187,9.049 19.187,18.704 l -0.02,61.245996 c 0,0.386 -0.298,-1.964 -16.095,-2.01 -15.795,-0.046 -323.359,0.058 -323.359,0.058 -39.259,0 -60.567,31.156 -60.567,59.715 l 0.035,153.388 c 0,38.088 29.884,60.95 61.566,60.95 h 318.919 c 41.492,0 65.64,-29.02 65.64,-65.64 V 85.160344 c 0,0 4.258,-74.573 -74.574,-74.573 H 222.07 c -46.23,1.112 -64.26,27.192 -69.589,61.85 z M 68.504,179.47634 h 322.997 c 9.88,0 16.023,7.032 16.023,16.023 v 151.92 c 0,9.369 -6.043,15.022 -15.021,15.022 H 68.504 c -10.967,0 -15.988,-5.02 -15.988,-15.988 v -150.954 c 0,-8.587 6.485,-16.023 15.988,-16.023 z" style="fill:#ffffff;fill-opacity:1;fill-rule:nonzero;stroke:none;stroke-opacity:1" id="path1328" />
          </g>
          <g transform="translate(-7.07555,105.468)" id="g1334" style="fill:#ffffff;fill-opacity:1;stroke:none;stroke-opacity:1">

          </g>
          <g transform="translate(-7.07555,191.769)" id="g1338" style="fill:#ffffff;fill-opacity:1;stroke:none;stroke-opacity:1">

          </g>
          <g transform="translate(-7.07555,196.919)" id="g1342" style="fill:#ffffff;fill-opacity:1;stroke:none;stroke-opacity:1">

          </g>
          <g transform="translate(-7.07555,191.4)" id="g1346" style="fill:#ffffff;fill-opacity:1;stroke:none;stroke-opacity:1">

          </g>
          <g transform="translate(-7.07555,113.807)" id="g1350" style="fill:#ffffff;fill-opacity:1;stroke:none;stroke-opacity:1">

          </g>
          <g transform="translate(-7.07555,167.584)" id="g1354" style="fill:#ffffff;fill-opacity:1;stroke:none;stroke-opacity:1">

          </g>
     </g>
</svg>
